<svg width="16" height="16" fill="none" xmlns="http://www.w3.org/2000/svg"><g clip-path="url(#clip0_139_663)"><path d="M15.637 3.845l-.004-.019C15.247 2.316 13.508.697 11.91.36l-.02-.004a21.38 21.38 0 00-7.788 0L4.086.36C2.488.697.749 2.317.363 3.826l-.005.019a14.293 14.293 0 000 6.354l.004.017c.37 1.447 1.98 2.991 3.518 3.416v1.685c0 .611.768.91 1.205.47l1.764-1.776c1.688.091 3.38-.018 5.042-.324l.019-.004c1.598-.338 3.337-1.957 3.723-3.467l.005-.018c.477-2.09.477-4.263 0-6.353zm-1.396 6.048c-.257.985-1.578 2.21-2.628 2.435a19.767 19.767 0 01-4.142.324.104.104 0 00-.074.029L6.11 13.96l-1.37 1.36c-.1.102-.276.032-.276-.107v-2.791a.096.096 0 00-.081-.094v-.001c-1.05-.225-2.371-1.449-2.629-2.435a12.94 12.94 0 010-5.742c.258-.985 1.579-2.21 2.628-2.435a19.9 19.9 0 017.232 0c1.05.226 2.37 1.45 2.628 2.435a12.94 12.94 0 010 5.742zm-3.42-.988c-.233-.163-.47-.32-.711-.47a.645.645 0 00-.757.032c-.23.185-.337.532-.666.569-.196.022-.367-.058-.538-.126-1.065-.43-1.715-1.225-2.1-2.25a.442.442 0 01.032-.399.69.69 0 01.163-.167c.071-.057.14-.116.216-.165.312-.206.36-.573.187-.876a8.094 8.094 0 00-1.003-1.358c-.174-.196-.41-.26-.648-.148a2.391 2.391 0 00-.807.586c-.234.27-.456.636-.305.993.165.392.327.784.52 1.163.405.797.886 1.551 1.5 2.221 1.078 1.174 2.44 1.94 3.92 2.534.143.059.296.09.457.138.14-.042.29-.064.413-.128.441-.228.746-.587.956-1.02.115-.235.045-.462-.159-.635-.211-.182-.44-.336-.67-.494zm-2.819-5.85c-.037-.001 1.935.05 0 0zm0 0c-.037 0-.075-.003-.113 0-.137.006-.258.117-.233.256.03.166.212.175.35.188.219.022.44.033.656.07 1.435.247 2.585 1.402 2.785 2.797.039.264.052.533.072.8.01.133.08.259.235.257.15-.002.23-.13.218-.263-.026-.32-.046-.644-.105-.959-.34-1.852-1.93-3.096-3.865-3.146zm2.485 3.66c0 .06.004.124.024.18.067.19.362.166.413-.022.014-.051.016-.106.02-.13-.009-.129-.014-.226-.02-.324-.004-.04-.013-.078-.02-.118-.134-.866-.592-1.516-1.395-1.928a3.122 3.122 0 00-1.268-.32c-.135-.007-.226.08-.232.2-.006.128.066.21.2.229.11.014.222.025.333.043.252.04.501.11.731.217.381.182.7.472.918.834.206.344.295.74.296 1.138zm-.747-.017c.02-.001.016-.001.005-.001a.19.19 0 00.168-.151c.014-.06.007-.123.002-.183-.076-.856-.613-1.23-1.363-1.283-.12-.008-.227.074-.245.181-.02.117.051.218.18.248.118.029.242.02.36.053a.854.854 0 01.262.122.84.84 0 01.32.487c.026.098.034.2.046.3.017.141.103.225.26.226-.037 0-.104.002.005.001z" fill="#08014a"/></g><defs><clipPath id="clip0_139_663"><path fill="#fff" d="M0 0h16v16H0z"/></clipPath></defs></svg>